# xmcd CD database file
#
# Track frame offsets:
#	150
#	18578
#	45456
#	80673
#	105009
#	130195
#	147145
#	160066
#	177257
#	195939
#	217595
#	238254
#	261714
#
# Disc length: 3781 seconds
#
# Revision: 0
# Processed by: cddbd v1.5.2PL0 Copyright (c) Steve Scherf et al.
# Submitted via: CDex 1.70beta2
#
DISCID=a60ec30d
DTITLE=Black Tamanous - Tamoca
DYEAR=2012
DGENRE=Sludge Metal
TTITLE0=Tacoma Pt. I (From Earth)
TTITLE1=Awakening
TTITLE2=Decapitated
TTITLE3=Blood, Bone And Bile
TTITLE4=The Red Tree
TTITLE5=Down To The Bones
TTITLE6=Tacoma Pt. Ii (In Shadow)
TTITLE7=A Confrontation
TTITLE8=Skullfucked
TTITLE9=The Death Rattle Of Multiple Miggs
TTITLE10=Lost
TTITLE11=Interfector
TTITLE12=Tacoma Pt. Iii (To Ashes)
EXTD=YEAR: 2012
EXTT0=
EXTT1=
EXTT2=
EXTT3=
EXTT4=
EXTT5=
EXTT6=
EXTT7=
EXTT8=
EXTT9=
EXTT10=
EXTT11=
EXTT12=
PLAYORDER=
